<svg width="18" height="18" viewBox="0 0 18 18" fill="none" xmlns="http://www.w3.org/2000/svg">
<g clip-path="url(#clip0_4774_2532)">
<path d="M8.99904 15.6589C12.6272 15.6589 15.5684 12.5236 15.5684 8.65595C15.5684 4.78834 12.6272 1.65302 8.99904 1.65302C5.37089 1.65302 2.42969 4.78834 2.42969 8.65595C2.42969 12.5236 5.37089 15.6589 8.99904 15.6589Z" fill="#E50914"/>
<path d="M18 9.03906C18 10.2688 17.767 11.429 17.3033 12.5194C16.8384 13.6098 16.2001 14.5633 15.3849 15.3772C14.5699 16.191 13.6158 16.8315 12.521 17.2984C11.4263 17.7662 10.2479 18 8.98664 18C7.74255 18 6.5772 17.7662 5.49088 17.2984C4.40456 16.8315 3.45421 16.191 2.64012 15.3772C1.82603 14.5633 1.18191 13.6147 0.708623 12.5323C0.236498 11.4502 0 10.2854 0 9.03906C0 7.80934 0.231849 6.64913 0.695839 5.5587C1.15983 4.46712 1.79524 3.51138 2.6009 2.68802C3.40656 1.86582 4.35691 1.2122 5.45166 0.726858C6.54641 0.242382 7.72483 0 8.98693 0H18V9.03906ZM13.7953 9.03906V4.1561H8.98693C8.33815 4.1561 7.72018 4.28131 7.13329 4.53288C6.54641 4.78359 6.03855 5.12965 5.60942 5.57133C5.1803 6.01302 4.83862 6.53196 4.58498 7.12958C4.33047 7.72635 4.2038 8.36303 4.2038 9.03877C4.2038 9.71451 4.32669 10.3466 4.57191 10.935C4.81712 11.5235 5.15415 12.0303 5.58414 12.4542C6.01327 12.8793 6.52026 13.2161 7.10802 13.4668C7.69403 13.7184 8.32014 13.8436 8.98693 13.8436C9.66969 13.8436 10.3004 13.7184 10.8789 13.4668C11.4565 13.2161 11.9644 12.8793 12.4028 12.4542C12.8395 12.0301 13.182 11.5232 13.4272 10.935C13.6724 10.3466 13.7953 9.7148 13.7953 9.03906Z" fill="#BA0214"/>
<path d="M15.7199 10.6088C14.6728 12.1033 13.5914 13.2885 11.7621 13.8502C10.9681 14.094 10.0535 14.1902 9.21413 14.1552C7.40175 14.0794 5.65707 13.783 4.03557 12.9416C2.23714 12.0085 0.848371 10.4554 0.00929722 8.64993C0.00406753 8.77887 0 8.90839 0 9.03906C0 10.2854 0.236498 11.4502 0.708913 12.5326C1.1822 13.6147 1.82632 14.5633 2.64041 15.3775C3.4545 16.1913 4.40485 16.8317 5.49117 17.2987C6.57749 17.7665 7.74284 18.0003 8.98693 18.0003C10.2479 18.0003 11.4263 17.7665 12.521 17.2987C13.6158 16.8317 14.5699 16.1913 15.3849 15.3775C16.1998 14.5636 16.8384 13.6104 17.3033 12.5197C17.767 11.4293 18 10.2691 18 9.03935V6.81656C17.3042 8.12266 16.5636 9.40493 15.7199 10.6088Z" fill="#BA0214"/>
<path d="M15.5292 9.02816C15.5292 9.92043 15.3601 10.7622 15.0237 11.5534C14.6864 12.3445 14.2233 13.0361 13.632 13.6265C13.0408 14.217 12.3487 14.6816 11.5544 15.0202C10.76 15.3597 9.90528 15.5294 8.99038 15.5294C8.08768 15.5294 7.2425 15.3597 6.45427 15.0202C5.66604 14.6816 4.97659 14.217 4.38622 13.6265C3.79585 13.0361 3.32837 12.3477 2.98496 11.5628C2.64241 10.7777 2.4707 9.93278 2.4707 9.02845C2.4707 8.13617 2.63892 7.29444 2.97537 6.50325C3.31181 5.71149 3.77319 5.01795 4.35746 4.42061C4.94202 3.82413 5.63147 3.34999 6.42551 2.99791C7.21984 2.6464 8.0746 2.47064 8.99038 2.47064H15.5295V9.02816H15.5292ZM12.4786 9.02816V5.48577H8.99009C8.51942 5.48577 8.07112 5.5768 7.64548 5.75916C7.21984 5.94095 6.85115 6.19223 6.53998 6.51273C6.22852 6.83323 5.98069 7.20972 5.79678 7.64337C5.61229 8.07644 5.52019 8.53823 5.52019 9.02845C5.52019 9.51867 5.60939 9.9773 5.7872 10.404C5.96501 10.8308 6.20964 11.1987 6.52168 11.5063C6.83313 11.8147 7.20095 12.0591 7.62717 12.2409C8.05223 12.4232 8.50663 12.5143 8.99038 12.5143C9.48575 12.5143 9.94334 12.4232 10.3629 12.2409C10.7818 12.0591 11.1502 11.8147 11.4684 11.5063C11.7851 11.1984 12.0338 10.8308 12.2116 10.404C12.3894 9.97701 12.4786 9.51838 12.4786 9.02816Z" fill="#E50914"/>
<path d="M12.1612 10.2903C11.8372 10.2903 11.5246 10.2487 11.2247 10.1705C10.5588 10.6668 9.70378 10.9617 8.88272 10.9617C7.84056 10.9617 6.91549 10.531 6.16299 9.84833C6.15399 9.84029 6.14614 9.83167 6.13742 9.82335C5.98896 9.84172 5.84049 9.85235 5.69319 9.85235C4.88317 9.85235 4.14433 9.5913 3.50195 9.15479C3.58505 12.0866 6.01511 14.4381 9.00126 14.4381C11.8625 14.4381 14.2135 12.2788 14.4779 9.51893C13.8152 10.0037 12.9718 10.2903 12.1612 10.2903Z" fill="#FCE6E6"/>
<path d="M13.9765 10.6924C14.4039 10.1054 14.4666 9.38281 14.4791 9.09763C14.4791 8.43568 14.2577 7.83633 13.8995 7.40269C13.568 7.00092 13.1133 6.78122 12.5003 6.70053C10.9122 6.49174 10.524 7.51383 9.04461 7.5233C7.52045 7.53307 7.18691 6.45269 5.50034 6.70053C4.72606 6.81425 4.344 7.10832 4.10111 7.40269C3.74287 7.83633 3.52148 8.43568 3.52148 9.09763C3.5334 9.37764 3.59441 10.1025 4.02412 10.6924C4.17636 10.9158 5.83213 13.2534 8.86739 13.3198C12.0682 13.3899 13.8556 10.8693 13.9765 10.6924Z" fill="#FCE6E6"/>
<path d="M5.48636 4.23506C5.79839 3.99785 6.16273 3.83875 6.52735 3.692C6.98001 3.50993 7.43906 3.34336 7.90334 3.19316C8.17616 3.105 8.45188 3.022 8.73486 2.97404C9.0315 2.92379 9.33308 2.9123 9.63379 2.9011C10.1969 2.87985 10.7611 2.8586 11.3238 2.89019C11.8698 2.92063 12.4116 3.00075 12.9564 3.04498C13.5581 3.0938 14.1633 3.09868 14.7656 3.05934C14.2176 3.20149 13.654 3.28535 13.0877 3.30919C12.5984 3.32986 12.1054 3.30574 11.6214 3.37897C11.0063 3.47202 10.4162 3.72445 9.92665 4.10382C11.0321 3.49815 12.4674 4.04351 13.6455 3.5912C13.1908 3.80256 12.7074 3.95362 12.212 4.03892C11.9471 4.08458 11.6748 4.11243 11.4279 4.21812C11.09 4.36257 10.8198 4.65377 10.703 4.99868C11.2076 4.75543 11.7576 4.53115 12.3137 4.60696C12.6034 4.64631 12.8782 4.76606 13.1691 4.79478C13.4895 4.82637 13.8204 4.74194 14.0854 4.56101C13.7269 4.83125 13.2603 4.91252 12.8599 5.11757C12.4909 5.30654 12.1798 5.60377 11.9764 5.96189C12.38 5.89411 12.798 5.82691 13.1946 5.92771C13.5093 6.00784 13.787 6.18819 14.0569 6.36681C14.3553 6.56439 14.6691 6.78438 14.7958 7.11665C14.3693 6.70425 13.7469 6.57387 13.1589 6.47336C12.7577 6.40501 12.3509 6.34154 11.9453 6.37428C11.5586 6.4053 11.185 6.52275 10.8145 6.63676C10.336 6.78409 9.85082 6.92797 9.3508 6.95812C8.85079 6.98828 8.32724 6.89465 7.92136 6.60403C8.27639 6.69018 8.65264 6.69018 9.00768 6.60403C8.33886 6.50782 7.66597 6.44349 6.99338 6.37887C6.68279 6.34901 6.37221 6.31943 6.06191 6.28956C5.77486 6.26199 5.48229 6.23471 5.20047 6.29559C4.66094 6.41219 4.24721 6.82774 3.86719 7.22405C3.94331 7.1445 3.96597 6.8645 4.00461 6.75393C4.05633 6.60604 4.11821 6.46245 4.17661 6.31713C4.25564 6.1207 4.3306 5.92312 4.41689 5.72956C4.66907 5.16582 4.98344 4.6173 5.48636 4.23506Z" fill="#D10014"/>
<path d="M5.42578 11.7885C5.59749 12.0665 5.94294 12.5335 6.54493 12.8695C7.78321 13.5607 9.07378 13.1216 9.28907 13.0444C8.85646 13.0777 8.1981 13.0757 7.4395 12.8632C6.46184 12.5892 5.78721 12.0967 5.42578 11.7885Z" fill="#930000"/>
<path d="M6.02615 10.2426C6.43232 10.2426 6.82542 10.2897 7.20515 10.3759C7.38064 10.089 7.48494 9.73805 7.48494 9.3584C7.48494 8.39117 6.81554 7.60687 5.98954 7.60687C5.16383 7.60687 4.49414 8.39117 4.49414 9.3584C4.49414 9.74609 4.60309 10.1033 4.78526 10.3937C5.19608 10.2958 5.61417 10.2426 6.02615 10.2426Z" fill="#930000"/>
<path d="M12.0476 10.2426C12.4538 10.2426 12.8469 10.2897 13.2266 10.3759C13.4021 10.089 13.5064 9.73805 13.5064 9.3584C13.5064 8.39117 12.837 7.60687 12.011 7.60687C11.1853 7.60687 10.5156 8.39117 10.5156 9.3584C10.5156 9.74609 10.6246 10.1033 10.8067 10.3937C11.2176 10.2958 11.6354 10.2426 12.0476 10.2426Z" fill="#930000"/>
<path d="M12.4303 8.65623C12.6172 8.65623 12.7688 8.50643 12.7688 8.32166C12.7688 8.13688 12.6172 7.98709 12.4303 7.98709C12.2433 7.98709 12.0918 8.13688 12.0918 8.32166C12.0918 8.50643 12.2433 8.65623 12.4303 8.65623Z" fill="white"/>
<path d="M12.479 10.0212C12.5559 10.0212 12.6182 9.95963 12.6182 9.88365C12.6182 9.80768 12.5559 9.74609 12.479 9.74609C12.4022 9.74609 12.3398 9.80768 12.3398 9.88365C12.3398 9.95963 12.4022 10.0212 12.479 10.0212Z" fill="white"/>
<path d="M6.55137 8.72919C6.7383 8.72919 6.88984 8.5794 6.88984 8.39463C6.88984 8.20985 6.7383 8.06006 6.55137 8.06006C6.36443 8.06006 6.21289 8.20985 6.21289 8.39463C6.21289 8.5794 6.36443 8.72919 6.55137 8.72919Z" fill="white"/>
<path d="M6.60206 10.0942C6.67892 10.0942 6.74123 10.0326 6.74123 9.95659C6.74123 9.88062 6.67892 9.81903 6.60206 9.81903C6.5252 9.81903 6.46289 9.88062 6.46289 9.95659C6.46289 10.0326 6.5252 10.0942 6.60206 10.0942Z" fill="white"/>
</g>
<defs>
<clipPath id="clip0_4774_2532">
<rect width="18" height="18" fill="white"/>
</clipPath>
</defs>
</svg>
